<?xml version="1.0" standalone="no"?>
<!DOCTYPE svg PUBLIC "-//W3C//DTD SVG 20010904//EN"
 "http://www.w3.org/TR/2001/REC-SVG-20010904/DTD/svg10.dtd">
<svg version="1.0" xmlns="http://www.w3.org/2000/svg"
 width="492.000000pt" height="492.000000pt" viewBox="0 0 492.000000 492.000000"
 preserveAspectRatio="xMidYMid meet">
<metadata>
Created by potrace 1.11, written by Peter Selinger 2001-2013
</metadata>
<g transform="translate(0.000000,492.000000) scale(0.100000,-0.100000)"
fill="#000000" stroke="none">
<path d="M3100 4913 c-308 -48 -563 -220 -703 -473 -58 -105 -119 -327 -132
-480 -3 -41 -8 -86 -10 -100 -4 -23 -7 -76 -20 -330 -3 -52 -7 -167 -10 -254
-3 -114 -8 -162 -17 -168 -7 -4 -83 -38 -168 -74 -85 -37 -182 -79 -215 -94
-33 -15 -123 -55 -200 -88 -77 -33 -338 -146 -580 -252 -242 -106 -472 -206
-512 -223 l-72 -31 31 -55 c147 -262 401 -471 694 -569 316 -106 663 -82 956
64 37 19 69 34 70 34 2 0 3 -232 3 -515 0 -283 2 -515 4 -515 2 0 12 10 23 23
11 12 63 69 116 126 117 125 122 131 242 261 52 57 111 120 130 140 54 55 160
179 245 285 21 28 42 52 45 55 3 3 23 28 45 55 21 28 42 52 45 55 18 14 152
198 216 295 145 221 243 405 303 568 36 96 72 217 66 217 -3 0 -1 10 4 23 22
58 32 272 17 371 -15 105 -66 224 -131 311 -83 110 -242 214 -400 261 -64 19
-215 24 -294 10 -115 -20 -264 -94 -381 -188 l-59 -48 4 152 c2 84 6 164 10
178 3 14 8 41 11 62 9 81 111 344 142 368 4 3 20 23 36 45 66 91 169 176 281
233 65 33 163 67 171 60 2 -3 0 -18 -7 -34 -19 -50 -22 -67 -25 -157 -4 -99
20 -183 72 -258 33 -48 115 -125 182 -170 81 -55 244 -164 307 -204 196 -126
413 -323 497 -450 153 -235 155 -568 6 -895 -90 -196 -294 -421 -683 -752
-170 -145 -196 -169 -290 -269 -224 -237 -380 -509 -426 -739 -47 -239 -17
-485 87 -704 27 -58 52 -87 39 -47 -8 27 -9 274 -1 356 17 162 21 190 47 280
11 39 22 77 24 85 5 25 64 169 87 213 45 90 125 216 198 312 38 50 215 226
305 303 55 48 105 91 111 97 6 5 42 37 79 70 347 303 486 466 608 710 51 104
112 289 126 385 15 103 6 303 -18 392 -52 198 -138 337 -319 516 -139 136
-239 215 -483 377 -185 124 -183 122 -249 187 -153 147 -133 344 53 533 l49
50 -34 8 c-36 8 -308 17 -348 10z m25 -1278 c190 -39 360 -219 390 -416 23
-145 4 -267 -72 -469 -121 -319 -318 -617 -742 -1120 -102 -121 -125 -147
-225 -255 l-46 -50 1 815 c0 668 2 833 15 917 21 149 64 271 127 363 38 55
114 130 153 150 16 8 31 17 34 20 7 7 71 30 99 36 13 3 40 8 60 13 45 9 153 7
206 -4z m-910 -1164 c0 -209 -3 -381 -5 -383 -29 -23 -120 -74 -180 -101 -176
-80 -367 -108 -570 -83 -132 16 -291 77 -419 160 -76 49 -221 181 -221 201 0
7 11 16 25 19 14 4 51 18 83 32 31 15 71 32 87 39 279 120 457 195 460 195 3
0 28 11 57 24 103 46 146 65 398 171 140 60 259 112 264 116 6 5 12 5 16 0 3
-6 5 -181 5 -390z"/>
</g>
</svg>
